<svg width="806" height="268" viewBox="0 0 806 268" fill="none" xmlns="http://www.w3.org/2000/svg" xmlns:xlink="http://www.w3.org/1999/xlink">
<path d="M254.458 120V43.0352H227.771V32.7891H293.357V43.0352H268.219V120H254.458ZM301.936 120V32.7891H336.725C348.242 32.7891 356.522 34.7152 361.565 38.5674C366.609 42.3799 369.131 48.1979 369.131 56.0215C369.131 61.8991 367.463 66.8633 364.127 70.9141C360.791 74.9648 356.224 77.5859 350.426 78.7773L371.275 120H356.442L336.665 80.6836H315.696V120H301.936ZM315.696 70.3184H334.282C338.532 70.3184 342.205 69.9411 345.303 69.1865C348.44 68.3923 350.843 66.9626 352.511 64.8975C354.218 62.8324 355.072 59.9134 355.072 56.1406C355.072 53.4798 354.655 51.3154 353.821 49.6475C352.987 47.9398 351.756 46.6292 350.128 45.7158C348.5 44.7627 346.514 44.1074 344.171 43.75C341.828 43.3529 339.167 43.1543 336.188 43.1543H315.696V70.3184ZM415.477 121.43C404.357 121.43 395.818 118.63 389.861 113.03C383.944 107.431 380.985 98.3363 380.985 85.7471V32.7891H394.746V84.1387C394.746 89.8574 395.302 94.6826 396.414 98.6143C397.566 102.546 399.651 105.524 402.669 107.55C405.727 109.535 410.115 110.528 415.834 110.528C421.513 110.528 425.862 109.555 428.88 107.609C431.938 105.624 434.023 102.685 435.135 98.793C436.286 94.8613 436.862 89.9766 436.862 84.1387V32.7891H450.623V85.3301C450.623 97.8398 447.645 106.994 441.688 112.792C435.77 118.55 427.033 121.43 415.477 121.43ZM494.526 121.489C489.443 121.489 484.936 120.973 481.004 119.94C477.112 118.908 473.756 117.379 470.937 115.354C468.157 113.328 465.913 110.846 464.205 107.907C462.497 104.968 461.286 101.593 460.571 97.7803L472.188 92.7168C473.617 97.125 475.285 100.62 477.191 103.201C479.137 105.783 481.58 107.629 484.519 108.741C487.497 109.853 491.23 110.409 495.718 110.409C499.729 110.409 503.005 109.893 505.547 108.86C508.089 107.788 509.955 106.259 511.146 104.273C512.378 102.248 512.973 99.8255 512.934 97.0059C512.894 93.3522 512.278 90.5326 511.087 88.5469C509.896 86.5612 507.771 84.8734 504.713 83.4834C501.695 82.0934 497.366 80.485 491.727 78.6582C486.127 76.8314 481.222 75.0046 477.013 73.1777C472.803 71.3509 469.527 68.9085 467.184 65.8506C464.84 62.7529 463.669 58.4639 463.669 52.9834C463.669 48.2178 464.781 44.2266 467.005 41.0098C469.269 37.7533 472.684 35.3109 477.251 33.6826C481.858 32.0146 487.676 31.1807 494.705 31.1807C499.63 31.1807 503.819 31.6572 507.274 32.6104C510.769 33.5635 513.867 35.1322 516.567 37.3164C519.268 39.4609 521.869 42.3997 524.371 46.1328L514.899 53.46C512.358 49.3298 509.677 46.4108 506.857 44.7031C504.038 42.9954 500.503 42.1416 496.254 42.1416C492.124 42.1416 488.708 42.5387 486.008 43.333C483.307 44.0876 481.282 45.2194 479.932 46.7285C478.621 48.1979 477.966 50.0049 477.966 52.1494C477.966 54.6514 478.383 56.6569 479.217 58.166C480.09 59.6354 481.461 60.8467 483.327 61.7998C485.194 62.7529 487.596 63.6862 490.535 64.5996C493.514 65.513 497.108 66.6647 501.317 68.0547C506.639 69.8021 511.226 71.7878 515.078 74.0117C518.97 76.2357 521.968 79.1348 524.073 82.709C526.178 86.2435 527.23 90.8701 527.23 96.5889C527.23 102.069 526.019 106.656 523.597 110.35C521.174 114.043 517.54 116.823 512.695 118.689C507.85 120.556 501.794 121.489 494.526 121.489ZM558.505 120V43.0352H531.817V32.7891H597.404V43.0352H572.266V120H558.505Z" fill="#2C2C2A"/>
<path d="M86.7459 180.336H67.7701C67.4235 177.881 66.7159 175.7 65.6472 173.794C64.5785 171.859 63.2066 170.213 61.5314 168.855C59.8562 167.498 57.9211 166.458 55.726 165.736C53.5598 165.014 51.2059 164.653 48.6642 164.653C44.0719 164.653 40.0717 165.794 36.6635 168.075C33.2554 170.328 30.6126 173.621 28.7353 177.953C26.8579 182.257 25.9192 187.484 25.9192 193.636C25.9192 199.962 26.8579 205.276 28.7353 209.58C30.6415 213.883 33.2987 217.132 36.7069 219.327C40.115 221.522 44.0575 222.62 48.5343 222.62C51.0471 222.62 53.3721 222.288 55.5094 221.624C57.6756 220.959 59.5963 219.992 61.2715 218.721C62.9467 217.421 64.333 215.847 65.4306 213.999C66.557 212.15 67.3368 210.042 67.7701 207.673L86.7459 207.76C86.2549 211.832 85.0274 215.76 83.0634 219.544C81.1283 223.299 78.5144 226.664 75.2218 229.638C71.958 232.585 68.0589 234.924 63.5243 236.657C59.0186 238.361 53.9209 239.213 48.231 239.213C40.3172 239.213 33.2409 237.422 27.0023 233.841C20.7926 230.259 15.8825 225.075 12.2722 218.288C8.69076 211.5 6.90004 203.283 6.90004 193.636C6.90004 183.961 8.71964 175.729 12.3588 168.942C15.998 162.154 20.937 156.984 27.1756 153.432C33.4142 149.85 40.4327 148.06 48.231 148.06C53.3721 148.06 58.1377 148.782 62.5279 150.226C66.9469 151.67 70.8605 153.778 74.2686 156.551C77.6768 159.295 80.4495 162.66 82.5868 166.646C84.753 170.631 86.1394 175.195 86.7459 180.336ZM113.823 238H93.7211L124.351 149.273H148.526L179.112 238H159.01L136.785 169.548H136.092L113.823 238ZM112.567 203.124H160.05V217.768H112.567V203.124ZM189.792 238V149.273H225.317C231.845 149.273 237.289 150.24 241.65 152.175C246.012 154.111 249.29 156.797 251.485 160.234C253.68 163.642 254.778 167.57 254.778 172.018C254.778 175.484 254.084 178.531 252.698 181.159C251.312 183.759 249.405 185.896 246.979 187.571C244.582 189.217 241.838 190.387 238.748 191.08V191.947C242.127 192.091 245.29 193.044 248.236 194.806C251.211 196.568 253.622 199.037 255.471 202.214C257.319 205.363 258.243 209.117 258.243 213.479C258.243 218.187 257.074 222.389 254.734 226.086C252.424 229.754 249.001 232.657 244.466 234.794C239.932 236.931 234.343 238 227.7 238H189.792ZM208.551 222.663H223.844C229.072 222.663 232.885 221.667 235.282 219.674C237.679 217.652 238.878 214.966 238.878 211.616C238.878 209.161 238.286 206.995 237.101 205.117C235.917 203.24 234.228 201.767 232.032 200.698C229.866 199.629 227.281 199.095 224.278 199.095H208.551V222.663ZM208.551 186.401H222.458C225.028 186.401 227.31 185.954 229.303 185.058C231.325 184.134 232.913 182.834 234.069 181.159C235.253 179.484 235.845 177.477 235.845 175.137C235.845 171.931 234.704 169.346 232.422 167.382C230.17 165.418 226.964 164.436 222.805 164.436H208.551V186.401ZM270.45 238V149.273H305.975C312.503 149.273 317.947 150.24 322.309 152.175C326.67 154.111 329.948 156.797 332.143 160.234C334.338 163.642 335.436 167.57 335.436 172.018C335.436 175.484 334.743 178.531 333.356 181.159C331.97 183.759 330.064 185.896 327.637 187.571C325.24 189.217 322.496 190.387 319.406 191.08V191.947C322.785 192.091 325.948 193.044 328.894 194.806C331.869 196.568 334.28 199.037 336.129 202.214C337.977 205.363 338.902 209.117 338.902 213.479C338.902 218.187 337.732 222.389 335.392 226.086C333.082 229.754 329.659 232.657 325.125 234.794C320.59 236.931 315.001 238 308.358 238H270.45ZM289.209 222.663H304.502C309.73 222.663 313.543 221.667 315.94 219.674C318.337 217.652 319.536 214.966 319.536 211.616C319.536 209.161 318.944 206.995 317.76 205.117C316.575 203.24 314.886 201.767 312.691 200.698C310.525 199.629 307.94 199.095 304.936 199.095H289.209V222.663ZM289.209 186.401H303.116C305.687 186.401 307.968 185.954 309.961 185.058C311.983 184.134 313.572 182.834 314.727 181.159C315.911 179.484 316.503 177.477 316.503 175.137C316.503 171.931 315.362 169.346 313.081 167.382C310.828 165.418 307.622 164.436 303.463 164.436H289.209V186.401ZM366.401 238H346.299L376.929 149.273H401.104L431.691 238H411.588L389.363 169.548H388.67L366.401 238ZM365.145 203.124H412.628V217.768H365.145V203.124ZM497.034 177.953C496.427 175.845 495.575 173.982 494.478 172.364C493.38 170.718 492.037 169.332 490.449 168.205C488.889 167.05 487.098 166.169 485.076 165.562C483.083 164.956 480.874 164.653 478.448 164.653C473.913 164.653 469.927 165.779 466.49 168.032C463.082 170.285 460.425 173.563 458.519 177.866C456.613 182.141 455.659 187.369 455.659 193.55C455.659 199.731 456.598 204.987 458.475 209.32C460.353 213.652 463.01 216.959 466.447 219.241C469.884 221.494 473.942 222.62 478.621 222.62C482.867 222.62 486.492 221.869 489.495 220.367C492.528 218.836 494.839 216.685 496.427 213.912C498.045 211.139 498.853 207.861 498.853 204.077L502.666 204.641H479.791V190.517H516.919V201.695C516.919 209.493 515.273 216.194 511.98 221.797C508.688 227.371 504.153 231.675 498.377 234.707C492.6 237.711 485.986 239.213 478.534 239.213C470.216 239.213 462.909 237.379 456.613 233.711C450.316 230.014 445.406 224.772 441.882 217.984C438.388 211.168 436.64 203.081 436.64 193.723C436.64 186.531 437.68 180.119 439.76 174.487C441.868 168.826 444.814 164.032 448.598 160.104C452.381 156.176 456.786 153.186 461.811 151.136C466.837 149.085 472.281 148.06 478.145 148.06C483.17 148.06 487.849 148.796 492.181 150.269C496.514 151.713 500.355 153.764 503.706 156.421C507.085 159.078 509.843 162.241 511.98 165.909C514.118 169.548 515.49 173.563 516.096 177.953H497.034ZM531.01 238V149.273H590.797V164.739H549.77V185.881H587.721V201.348H549.77V222.533H590.971V238H531.01Z" fill="#444441"/>
<path d="M792 25H638C630.268 25 624 30.2471 624 36.7197V234.28C624 240.753 630.268 246 638 246H792C799.732 246 806 240.753 806 234.28V36.7197C806 30.2471 799.732 25 792 25Z" fill="#6D28D9"/>
<path d="M713 158C745.585 158 772 131.585 772 99C772 66.4152 745.585 40 713 40C680.415 40 654 66.4152 654 99C654 131.585 680.415 158 713 158Z" fill="black" fill-opacity="0.18"/>
<path d="M756 172H674C659.641 172 648 183.641 648 198C648 212.359 659.641 224 674 224H756C770.359 224 782 212.359 782 198C782 183.641 770.359 172 756 172Z" fill="#16A34A"/>
<path d="M756 174H674C660.745 174 650 184.745 650 198C650 211.255 660.745 222 674 222H756C769.255 222 780 211.255 780 198C780 184.745 769.255 174 756 174Z" stroke="white" stroke-opacity="0.2"/>
<path d="M682.95 89.3746V82.9091H713.412V89.3746H702.057V120H694.305V89.3746H682.95ZM749.462 95.8945H741.529C741.384 94.8683 741.088 93.9567 740.642 93.1598C740.195 92.3509 739.621 91.6626 738.921 91.0952C738.221 90.5277 737.412 90.093 736.494 89.7912C735.589 89.4893 734.605 89.3384 733.542 89.3384C731.623 89.3384 729.95 89.8153 728.526 90.7692C727.101 91.7109 725.996 93.0874 725.211 94.8984C724.426 96.6974 724.034 98.8828 724.034 101.455C724.034 104.099 724.426 106.32 725.211 108.119C726.008 109.918 727.119 111.277 728.544 112.194C729.968 113.112 731.616 113.571 733.488 113.571C734.538 113.571 735.51 113.432 736.404 113.154C737.309 112.876 738.112 112.472 738.812 111.941C739.513 111.397 740.092 110.739 740.551 109.967C741.022 109.194 741.348 108.312 741.529 107.322L749.462 107.359C749.256 109.061 748.743 110.703 747.922 112.285C747.113 113.854 746.021 115.261 744.644 116.505C743.28 117.736 741.65 118.714 739.754 119.439C737.871 120.151 735.74 120.507 733.361 120.507C730.053 120.507 727.095 119.759 724.487 118.261C721.891 116.764 719.838 114.597 718.329 111.76C716.832 108.922 716.083 105.487 716.083 101.455C716.083 97.4098 716.844 93.9688 718.365 91.1314C719.887 88.294 721.951 86.1328 724.559 84.6477C727.167 83.1506 730.101 82.402 733.361 82.402C735.51 82.402 737.502 82.7038 739.338 83.3075C741.185 83.9112 742.821 84.7926 744.246 85.9517C745.67 87.0987 746.83 88.5053 747.723 90.1715C748.629 91.8377 749.208 93.7454 749.462 95.8945Z" fill="white"/>
</svg>
